<?xml version="1.0" standalone="no"?>
<!DOCTYPE svg PUBLIC "-//W3C//DTD SVG 20010904//EN"
 "http://www.w3.org/TR/2001/REC-SVG-20010904/DTD/svg10.dtd">
<svg version="1.0" xmlns="http://www.w3.org/2000/svg"
 width="2740.000000pt" height="2740.000000pt" viewBox="0 0 2740.000000 2740.000000"
 preserveAspectRatio="xMidYMid meet">
<metadata>
Created by potrace 1.14, written by Peter Selinger 2001-2017
</metadata>
<g transform="translate(0.000000,2740.000000) scale(0.100000,-0.100000)"
fill="#000000" stroke="none">
<path d="M9780 21270 c-41 -4 -127 -8 -190 -9 -64 0 -151 -5 -195 -11 -44 -5
-150 -15 -235 -21 -314 -21 -518 -43 -870 -90 -41 -6 -104 -14 -140 -19 -181
-23 -233 -31 -240 -35 -4 -3 -39 -10 -76 -16 -72 -11 -154 -25 -239 -39 -48
-8 -174 -32 -260 -51 -22 -4 -62 -13 -90 -19 -112 -23 -210 -46 -261 -61 -17
-5 -41 -9 -54 -9 -13 0 -37 -4 -54 -9 -44 -13 -134 -38 -181 -50 -74 -18 -120
-30 -180 -46 -106 -30 -119 -33 -165 -46 -78 -21 -204 -61 -222 -70 -10 -5
-27 -9 -38 -9 -11 0 -28 -4 -38 -9 -9 -5 -57 -21 -107 -36 -49 -15 -98 -31
-107 -36 -10 -5 -26 -9 -36 -9 -10 0 -22 -3 -26 -7 -6 -7 -45 -22 -126 -49
-25 -8 -53 -19 -62 -24 -10 -6 -26 -10 -36 -10 -10 0 -22 -4 -27 -9 -13 -11
-157 -61 -178 -61 -9 0 -17 -4 -17 -10 0 -5 -7 -10 -15 -10 -13 0 -100 -36
-147 -61 -10 -5 -22 -9 -28 -9 -5 0 -35 -12 -67 -26 -32 -14 -67 -30 -78 -34
-11 -4 -46 -20 -78 -34 -32 -14 -61 -26 -65 -26 -4 0 -39 -15 -77 -34 -39 -18
-106 -50 -150 -71 -44 -20 -130 -62 -192 -91 -61 -30 -116 -54 -122 -54 -6 0
-11 -4 -11 -9 0 -5 -8 -11 -17 -14 -24 -8 -225 -116 -238 -128 -5 -5 -17 -9
-27 -9 -10 0 -18 -4 -18 -9 0 -5 -8 -11 -17 -14 -25 -8 -146 -76 -216 -120
-31 -20 -59 -37 -62 -37 -3 0 -29 -16 -59 -35 -30 -19 -57 -35 -60 -35 -7 0
-220 -135 -294 -186 -35 -24 -66 -44 -71 -44 -4 0 -16 -8 -27 -17 -31 -28
-203 -143 -213 -143 -5 0 -11 -4 -13 -8 -1 -4 -48 -41 -103 -82 -55 -41 -104
-79 -110 -83 -5 -4 -65 -49 -131 -100 -134 -101 -261 -202 -284 -227 -8 -8
-37 -33 -65 -55 -27 -22 -56 -45 -63 -52 -7 -7 -34 -29 -60 -50 -26 -21 -85
-75 -132 -119 -47 -45 -114 -107 -150 -139 -146 -131 -624 -623 -699 -720 -12
-16 -39 -48 -59 -70 -20 -22 -59 -67 -87 -100 -27 -33 -67 -79 -88 -101 -35
-39 -102 -123 -200 -254 -22 -30 -43 -57 -46 -60 -4 -3 -19 -23 -36 -45 -16
-22 -31 -42 -34 -45 -39 -35 -402 -558 -391 -565 4 -3 29 14 55 38 26 23 98
79 159 125 61 46 124 93 139 105 16 12 39 28 52 37 13 8 53 36 90 63 36 26 70
47 75 47 4 0 10 4 12 8 3 9 332 222 342 222 3 0 37 20 76 45 39 25 72 45 75
45 2 0 28 15 57 33 29 18 67 39 83 47 17 8 41 22 55 31 60 40 681 356 840 428
81 36 133 60 252 115 43 20 80 36 83 36 3 0 27 10 53 21 26 12 63 28 82 36 19
8 45 19 58 24 12 5 32 13 45 18 12 5 40 16 62 26 70 29 84 35 108 44 12 4 33
13 47 19 14 5 57 22 95 37 39 15 78 31 87 36 10 5 24 9 31 9 13 0 59 19 99 41
10 5 27 9 37 9 11 0 23 5 26 10 3 6 15 10 26 10 10 0 27 4 37 9 9 5 37 17 62
26 25 9 53 21 62 26 10 5 25 9 33 9 8 0 23 4 33 9 20 10 55 22 167 58 44 14
89 29 100 33 11 5 45 16 75 25 30 10 63 21 72 26 10 5 29 9 42 9 14 0 28 5 31
10 3 6 15 10 25 10 11 0 34 6 52 14 18 8 53 20 78 26 78 22 103 29 181 55 41
14 85 25 97 25 11 0 23 4 26 9 3 5 20 11 38 14 18 3 49 10 68 16 109 32 149
44 183 52 92 22 117 29 192 49 44 11 94 25 111 30 17 6 40 10 52 10 12 0 30 4
40 9 23 12 109 33 155 39 20 2 40 8 43 13 3 5 23 9 44 9 21 0 42 5 45 10 3 6
20 10 36 10 17 0 38 4 48 10 10 5 45 14 77 20 33 6 82 15 109 21 28 5 66 12
85 15 19 3 44 9 55 14 19 8 79 21 190 42 93 17 150 27 200 36 50 9 122 24 203
42 23 6 60 10 82 10 21 0 42 5 45 10 3 6 29 10 56 10 28 0 59 5 69 10 18 10
59 17 235 41 126 18 189 27 285 43 127 21 240 36 325 43 39 3 74 9 80 14 5 5
38 9 75 9 36 0 81 4 100 10 53 14 240 35 525 58 61 5 117 12 125 15 31 13 414
42 1005 76 99 5 203 13 230 16 321 38 2918 38 3110 0 17 -3 125 -11 240 -16
532 -26 704 -38 995 -65 96 -9 222 -20 280 -24 112 -10 257 -22 460 -39 69 -6
132 -14 140 -17 8 -3 60 -11 115 -16 55 -5 141 -13 190 -18 254 -24 480 -52
505 -63 8 -3 49 -8 90 -11 150 -12 406 -43 430 -53 8 -3 49 -10 90 -14 41 -5
107 -13 145 -18 39 -5 107 -14 152 -20 46 -5 92 -12 103 -16 11 -3 52 -11 92
-16 70 -9 110 -15 263 -38 39 -5 111 -17 160 -26 50 -9 119 -21 155 -26 36 -5
92 -13 125 -18 33 -5 93 -14 133 -20 40 -6 78 -13 84 -17 5 -4 38 -11 71 -16
59 -8 110 -16 237 -37 30 -5 93 -17 140 -26 47 -9 110 -20 140 -25 30 -5 80
-14 110 -19 30 -6 83 -15 118 -20 35 -6 72 -15 82 -21 10 -5 36 -10 57 -10 22
0 43 -4 49 -9 5 -5 32 -12 59 -14 28 -3 73 -10 100 -15 28 -6 79 -15 115 -22
36 -7 74 -16 85 -21 11 -4 38 -10 60 -13 51 -6 131 -21 220 -41 39 -9 93 -20
120 -26 28 -5 70 -14 95 -19 65 -13 126 -25 200 -40 36 -7 74 -16 85 -21 11
-4 36 -10 55 -13 44 -6 116 -21 200 -41 77 -19 138 -33 200 -45 25 -4 74 -16
110 -25 75 -18 137 -32 200 -45 56 -11 106 -23 190 -45 36 -9 84 -21 108 -26
190 -41 301 -68 324 -80 10 -5 31 -9 47 -9 17 0 40 -4 53 -9 13 -5 57 -16 98
-26 41 -9 84 -21 95 -25 11 -5 34 -11 50 -14 36 -6 90 -19 170 -41 33 -9 77
-19 98 -22 20 -3 40 -9 43 -14 3 -5 17 -9 31 -9 15 0 40 -4 57 -9 17 -5 58
-17 91 -26 33 -9 74 -21 91 -26 17 -5 40 -9 52 -9 12 0 30 -4 40 -9 16 -8 159
-47 212 -58 14 -2 34 -8 45 -13 11 -5 34 -11 50 -15 42 -8 91 -21 155 -40 30
-10 73 -21 95 -26 65 -16 107 -27 165 -44 30 -10 71 -21 90 -25 41 -10 84 -22
160 -45 30 -9 66 -18 80 -21 14 -3 34 -9 45 -14 11 -5 31 -11 45 -13 22 -5 54
-13 170 -48 19 -6 50 -13 68 -16 18 -3 35 -9 38 -14 3 -5 16 -9 29 -9 13 0 34
-4 47 -9 13 -5 50 -17 83 -26 33 -10 71 -21 85 -25 14 -4 45 -13 70 -20 82
-22 145 -42 162 -51 10 -5 29 -9 42 -9 14 0 28 -4 31 -10 3 -5 15 -10 26 -10
20 0 171 -46 201 -61 10 -5 27 -9 37 -9 11 0 30 -4 43 -9 20 -8 116 -38 223
-70 110 -32 213 -64 227 -72 10 -5 27 -9 38 -9 11 0 28 -4 38 -9 9 -5 58 -21
107 -36 50 -15 99 -31 110 -35 11 -4 61 -20 110 -35 189 -58 375 -116 400
-125 11 -4 45 -15 75 -24 30 -10 64 -21 75 -26 11 -4 88 -29 170 -55 83 -26
159 -51 170 -55 71 -26 93 -33 118 -37 15 -3 30 -9 33 -14 3 -5 18 -9 35 -9
16 0 29 -4 29 -10 0 -5 15 -10 33 -9 25 1 27 3 12 8 -34 11 -120 56 -123 64
-2 4 -9 7 -16 7 -21 0 -286 130 -306 150 -3 3 -25 16 -50 29 -25 13 -88 46
-140 74 -52 28 -135 72 -185 99 -49 26 -128 67 -175 90 -47 23 -87 45 -90 48
-6 6 -736 369 -955 475 -153 74 -194 93 -420 200 -206 97 -241 113 -290 135
-45 21 -92 42 -250 115 -27 12 -68 30 -90 40 -22 10 -58 26 -79 36 -22 11 -46
19 -53 19 -7 0 -13 5 -13 10 0 6 -6 10 -13 10 -7 0 -31 8 -53 19 -21 10 -55
25 -74 34 -19 8 -57 25 -85 37 -27 12 -63 28 -80 35 -16 7 -52 23 -80 35 -63
28 -114 50 -140 60 -11 4 -42 18 -70 30 -27 12 -63 28 -80 35 -16 7 -52 23
-80 35 -27 12 -66 29 -85 37 -19 8 -43 19 -52 24 -10 5 -22 9 -28 9 -5 0 -35
12 -67 26 -57 25 -88 39 -128 55 -11 4 -46 19 -77 33 -31 14 -63 26 -70 26 -8
0 -18 4 -24 8 -5 5 -52 26 -104 46 -95 38 -118 48 -175 71 -28 12 -56 23 -107
44 -13 5 -39 15 -58 23 -19 8 -51 21 -70 28 -19 7 -39 17 -44 22 -6 4 -17 8
-26 8 -9 0 -40 11 -68 25 -29 14 -56 25 -62 25 -6 0 -18 4 -28 9 -22 11 -57
25 -102 41 -46 17 -101 39 -122 51 -10 5 -26 9 -36 9 -10 0 -22 4 -28 8 -5 5
-43 21 -84 36 -41 15 -84 31 -95 36 -11 4 -36 14 -55 20 -46 17 -101 39 -122
51 -10 5 -25 9 -33 9 -8 0 -23 4 -33 9 -9 5 -37 17 -62 26 -25 9 -53 21 -62
26 -10 5 -25 9 -33 9 -8 0 -23 4 -33 9 -9 6 -51 22 -92 36 -41 14 -83 30 -92
36 -10 5 -26 9 -36 9 -10 0 -22 3 -26 7 -6 7 -45 22 -126 49 -25 8 -53 19 -62
24 -10 6 -24 10 -33 10 -13 0 -65 20 -107 41 -10 5 -25 9 -33 9 -8 0 -23 4
-33 9 -9 5 -42 17 -72 26 -30 10 -59 22 -64 26 -6 5 -18 9 -28 9 -10 0 -26 4
-36 9 -17 9 -106 39 -197 67 -27 9 -58 20 -67 25 -10 5 -26 9 -36 9 -10 0 -22
4 -28 8 -5 4 -36 16 -69 26 -33 10 -68 22 -77 27 -10 5 -25 9 -33 9 -8 0 -23
4 -33 9 -19 10 -65 25 -137 48 -27 8 -59 19 -70 23 -11 4 -60 20 -110 35 -49
15 -99 31 -110 35 -11 4 -40 13 -65 20 -25 7 -61 18 -80 25 -19 7 -55 18 -80
25 -25 7 -53 16 -62 21 -10 5 -23 9 -30 9 -16 0 -178 49 -200 61 -10 5 -26 9
-35 9 -10 0 -49 11 -88 25 -38 13 -80 25 -92 25 -12 0 -25 5 -28 10 -3 6 -16
10 -27 10 -12 0 -35 4 -52 10 -129 41 -198 60 -215 60 -11 0 -22 4 -25 9 -3 5
-20 11 -38 14 -18 2 -58 12 -88 22 -30 9 -70 19 -88 22 -18 3 -35 9 -38 14 -3
5 -15 9 -26 9 -12 0 -35 4 -52 10 -129 41 -198 60 -215 60 -11 0 -22 4 -25 9
-3 5 -23 11 -43 14 -21 3 -65 12 -98 21 -70 20 -124 34 -180 46 -68 15 -118
27 -185 45 -98 25 -188 47 -257 64 -84 19 -139 34 -161 42 -13 5 -33 9 -44 9
-12 0 -35 4 -52 10 -29 9 -206 52 -271 65 -92 19 -126 26 -185 40 -79 20 -140
33 -200 44 -128 25 -161 31 -225 46 -38 9 -94 20 -122 25 -111 21 -161 30
-238 46 -44 9 -104 20 -132 25 -29 5 -77 13 -105 18 -29 5 -84 14 -122 20 -37
6 -72 14 -77 16 -4 3 -41 10 -81 16 -40 6 -102 15 -138 20 -36 6 -90 14 -120
19 -30 4 -98 15 -150 25 -90 15 -160 26 -310 45 -36 4 -103 13 -150 19 -47 6
-92 14 -100 17 -8 3 -55 10 -105 16 -49 5 -126 13 -170 18 -44 5 -120 13 -170
19 -49 5 -101 12 -115 15 -14 3 -77 11 -140 17 -326 30 -466 42 -730 58 -96 6
-182 14 -192 17 -70 22 -1830 43 -2028 24z"/>
<path d="M16830 16015 c-8 -2 -62 -9 -120 -15 -58 -7 -134 -19 -170 -27 -36
-8 -81 -18 -100 -22 -38 -9 -151 -46 -187 -61 -13 -6 -33 -14 -45 -18 -194
-71 -508 -289 -683 -474 -227 -239 -365 -454 -506 -783 -18 -44 -72 -212 -80
-250 -4 -22 -17 -85 -28 -140 -38 -190 -43 -260 -38 -530 5 -255 13 -350 36
-450 7 -27 17 -70 22 -95 23 -101 68 -246 100 -318 11 -24 27 -62 36 -85 16
-40 53 -113 103 -202 30 -55 143 -225 169 -254 12 -13 36 -43 54 -67 17 -23
88 -99 157 -167 166 -165 319 -280 490 -367 128 -65 133 -67 215 -96 28 -10
55 -21 60 -24 6 -4 24 -10 40 -13 17 -3 66 -14 110 -26 44 -11 114 -25 155
-32 41 -6 91 -15 111 -20 50 -13 403 -11 491 2 114 17 240 39 273 49 17 5 50
14 75 20 38 10 88 28 195 70 97 37 404 214 435 249 3 4 34 31 70 61 112 94
188 171 279 280 159 191 252 342 364 591 41 90 100 274 118 364 84 424 84 744
-1 1150 -58 280 -237 658 -412 872 -18 22 -49 60 -68 84 -43 54 -216 228 -290
293 -112 97 -376 258 -491 302 -24 9 -53 20 -64 25 -32 14 -147 51 -185 60
-196 45 -304 59 -500 64 -96 2 -182 2 -190 0z m325 -731 c109 -15 220 -42 284
-70 152 -66 278 -142 351 -211 19 -18 38 -33 42 -33 14 0 191 -208 247 -290
87 -128 155 -265 192 -385 6 -22 15 -49 20 -60 11 -28 27 -104 45 -204 21
-116 21 -466 0 -571 -22 -111 -52 -231 -75 -295 -6 -16 -14 -38 -17 -49 -20
-56 -129 -255 -177 -323 -176 -249 -366 -409 -612 -514 -65 -27 -100 -39 -116
-39 -11 0 -27 -4 -37 -9 -72 -38 -446 -49 -582 -17 -41 9 -91 21 -110 25 -19
4 -71 23 -115 42 -157 66 -273 146 -405 279 -83 83 -220 248 -220 265 0 4 -13
25 -28 48 -27 39 -105 194 -124 245 -4 12 -12 32 -17 45 -47 123 -65 212 -87
422 -14 126 -14 173 -5 295 7 80 16 161 21 180 4 19 13 58 19 85 14 61 40 152
52 183 5 12 13 32 18 45 21 57 90 190 135 262 77 122 132 191 234 292 187 186
392 299 627 344 113 22 326 28 440 13z"/>
<path d="M24783 15968 c-13 -13 -23 -28 -23 -34 0 -5 -12 -38 -26 -74 -32 -78
-25 -61 -114 -290 -39 -102 -79 -203 -89 -225 -10 -22 -30 -71 -46 -110 -15
-38 -36 -89 -46 -112 -11 -24 -19 -46 -19 -49 0 -3 -7 -22 -16 -42 -9 -21 -20
-46 -24 -57 -4 -11 -15 -38 -25 -60 -32 -78 -35 -85 -64 -157 -30 -75 -55
-137 -66 -163 -7 -16 -29 -73 -50 -125 -21 -52 -46 -114 -56 -137 -11 -24 -19
-46 -19 -49 0 -3 -7 -22 -16 -42 -21 -48 -25 -58 -69 -172 -21 -52 -43 -108
-50 -125 -7 -16 -22 -57 -35 -90 -12 -33 -26 -69 -30 -80 -5 -11 -20 -54 -35
-95 -15 -41 -31 -84 -35 -95 -5 -11 -16 -40 -24 -65 -29 -84 -42 -120 -49
-126 -4 -4 -7 -17 -7 -29 0 -11 -4 -25 -8 -31 -4 -5 -16 -34 -26 -64 -11 -30
-23 -59 -27 -64 -5 -6 -9 -18 -9 -28 0 -10 -4 -26 -9 -36 -6 -9 -22 -51 -36
-92 -15 -41 -30 -84 -35 -95 -9 -22 -43 -115 -66 -185 -8 -25 -19 -54 -24 -65
-4 -11 -24 -63 -43 -115 -19 -52 -51 -140 -72 -195 -20 -55 -41 -113 -47 -130
-5 -16 -14 -39 -18 -50 -5 -11 -20 -54 -35 -95 -15 -41 -30 -84 -35 -95 -5
-11 -20 -54 -35 -95 -15 -41 -30 -84 -35 -95 -9 -21 -48 -130 -72 -198 -12
-37 -11 -40 11 -58 22 -18 44 -19 383 -19 l361 0 19 23 c18 19 41 66 68 132
11 26 75 237 90 295 15 54 40 137 50 165 4 11 13 40 21 65 17 62 85 199 112
228 50 54 12 52 905 52 709 0 835 -2 865 -15 34 -14 107 -81 107 -98 0 -5 8
-21 18 -35 10 -15 31 -58 46 -97 16 -38 32 -79 37 -90 15 -36 59 -179 59 -192
0 -7 4 -21 9 -31 5 -9 15 -37 22 -62 36 -128 99 -266 142 -313 l27 -29 98 8
c122 11 406 11 537 0 83 -7 103 -5 120 7 18 14 19 18 6 54 -14 42 -98 266
-111 298 -7 18 -48 123 -70 180 -17 45 -62 161 -70 180 -4 11 -18 47 -30 80
-13 33 -29 76 -37 95 -22 52 -30 71 -43 110 -7 19 -19 49 -26 65 -6 17 -63
161 -124 320 -62 160 -118 304 -125 320 -7 17 -23 57 -35 90 -13 33 -29 76
-37 95 -16 38 -18 42 -58 145 -15 39 -32 81 -37 95 -6 14 -14 34 -18 45 -8 20
-54 141 -70 180 -4 11 -20 52 -35 90 -15 39 -31 79 -35 90 -4 11 -18 47 -30
80 -13 33 -29 76 -37 95 -22 53 -29 70 -53 135 -13 33 -29 74 -35 90 -7 17
-23 57 -35 90 -13 33 -29 76 -37 95 -16 38 -18 42 -58 145 -15 39 -32 81 -37
95 -6 14 -14 34 -18 45 -10 25 -60 153 -70 180 -4 11 -14 36 -22 55 -8 19 -21
51 -28 70 -12 34 -19 54 -39 103 -5 12 -26 65 -46 117 -21 52 -44 109 -51 127
-8 17 -14 34 -14 37 0 3 -9 25 -19 49 -10 23 -26 61 -35 84 -24 66 -58 135
-79 167 l-20 29 -86 -8 c-110 -11 -421 -11 -531 -1 -82 8 -86 7 -107 -16z
m392 -991 c21 -50 55 -125 90 -202 14 -31 25 -58 25 -60 0 -3 9 -27 21 -53 29
-66 30 -69 99 -242 33 -85 65 -164 69 -175 5 -11 19 -47 31 -80 13 -33 29 -73
36 -90 6 -16 33 -86 59 -155 26 -69 50 -134 55 -145 21 -50 103 -289 140 -411
16 -50 12 -71 -20 -103 -33 -32 -91 -53 -201 -70 -89 -15 -830 -15 -901 0 -89
18 -122 30 -153 55 -49 39 -44 81 42 319 41 114 94 259 103 280 5 11 29 76 55
145 40 107 64 168 105 275 4 11 14 36 22 55 8 19 21 51 28 70 14 41 23 65 37
100 6 14 18 45 28 70 10 25 22 56 28 70 5 14 13 34 17 45 11 29 61 157 70 180
4 11 15 38 23 60 49 129 60 136 92 62z"/>
<path d="M4285 15939 c-38 -5 -133 -16 -210 -25 -77 -9 -151 -22 -165 -29
l-25 -14 -3 -183 c-2 -101 2 -316 9 -478 57 -1391 57 -1706 0 -2970 -6 -129
-11 -328 -11 -442 l0 -208 26 -16 c23 -16 38 -16 167 -4 134 12 302 10 480 -6
78 -7 100 5 116 64 7 22 6 274 0 696 -5 363 -13 904 -18 1201 -4 311 -4 554 1
573 6 21 15 32 27 32 17 0 51 -29 51 -43 0 -4 11 -30 24 -59 50 -111 66 -148
66 -152 0 -3 13 -33 29 -68 37 -82 79 -175 96 -213 7 -16 24 -56 39 -88 14
-32 26 -60 26 -62 0 -5 15 -40 66 -153 13 -29 24 -55 24 -57 0 -3 16 -39 35
-81 19 -41 35 -77 35 -80 0 -2 10 -26 21 -52 12 -26 27 -60 34 -77 18 -41 52
-119 81 -183 13 -29 24 -58 24 -65 0 -7 4 -17 8 -22 5 -6 16 -29 25 -52 9 -23
26 -64 38 -90 27 -62 41 -93 74 -173 15 -36 38 -90 52 -120 14 -30 34 -77 45
-105 11 -27 31 -74 45 -105 14 -30 38 -87 54 -127 15 -39 38 -93 50 -120 12
-26 28 -64 36 -83 9 -19 24 -53 34 -74 11 -22 19 -44 19 -49 0 -14 23 -32 60
-47 27 -12 83 -15 242 -15 l208 0 23 25 c13 14 34 50 47 80 12 30 28 69 35 85
7 17 29 73 50 125 20 52 41 104 45 115 4 11 20 52 35 90 15 39 31 78 36 87 5
10 9 24 9 32 0 8 12 43 26 78 14 35 30 73 35 86 41 103 71 176 84 207 7 17 41
100 74 185 34 85 66 165 72 178 5 12 13 32 18 45 5 12 16 38 25 59 9 20 16 39
16 42 0 3 9 26 20 51 11 25 29 65 40 90 11 25 20 48 20 51 0 7 26 69 41 96 5
10 9 22 9 28 0 5 12 35 26 67 14 32 30 67 34 78 4 11 18 42 29 68 12 26 29 67
38 90 9 23 20 46 25 52 4 5 8 15 8 21 0 7 16 47 35 88 19 42 35 78 35 80 0 12
74 164 88 179 19 21 48 22 56 1 9 -24 6 -564 -5 -879 -9 -256 -18 -603 -35
-1300 l-6 -260 24 -35 24 -35 105 5 c166 7 425 6 534 -4 151 -13 141 -42 137
383 -2 190 -7 420 -13 511 -8 149 -15 358 -36 1084 -3 132 -1 388 5 575 46
1350 52 1732 29 1762 -10 13 -52 18 -227 28 -411 23 -465 25 -488 12 -25 -13
-62 -68 -81 -121 -7 -19 -17 -44 -21 -55 -4 -11 -14 -36 -20 -55 -7 -19 -19
-48 -25 -65 -7 -16 -18 -46 -25 -65 -7 -19 -16 -44 -20 -55 -4 -11 -15 -40
-25 -65 -10 -25 -21 -54 -25 -65 -5 -11 -29 -76 -55 -145 -26 -69 -53 -138
-59 -155 -7 -16 -19 -46 -26 -65 -6 -19 -16 -45 -21 -57 -12 -30 -23 -57 -44
-113 -22 -58 -33 -84 -44 -112 -5 -13 -62 -160 -126 -328 -64 -168 -121 -314
-125 -325 -5 -11 -32 -78 -60 -150 -28 -71 -55 -140 -60 -152 -6 -13 -14 -34
-20 -48 -5 -14 -14 -35 -19 -47 -5 -13 -33 -81 -61 -153 -28 -71 -55 -139 -59
-150 -21 -50 -30 -72 -45 -107 -9 -20 -16 -39 -16 -42 0 -7 -36 -90 -51 -118
-5 -10 -9 -22 -9 -28 0 -5 -12 -35 -26 -67 -14 -32 -30 -67 -34 -78 -4 -11
-15 -38 -25 -60 -9 -22 -20 -49 -25 -60 -83 -201 -123 -262 -153 -237 -16 14
-56 94 -123 250 -8 17 -20 47 -28 65 -8 17 -37 88 -66 157 -57 138 -68 163
-99 232 -11 26 -21 50 -21 53 0 2 -11 28 -24 57 -52 116 -68 153 -87 201 -11
28 -29 71 -40 96 -11 25 -24 55 -29 66 -4 11 -17 41 -29 67 -12 26 -21 50 -21
52 0 3 -16 39 -35 80 -19 42 -35 78 -35 80 0 3 -13 34 -30 70 -16 36 -43 96
-60 132 -16 36 -30 67 -30 70 0 2 -16 38 -35 80 -19 41 -35 77 -35 79 0 3 -13
34 -30 70 -16 36 -30 67 -30 70 0 2 -16 38 -35 79 -19 42 -35 78 -35 81 0 2
-16 39 -36 82 -20 43 -40 87 -45 98 -4 11 -31 69 -59 129 -27 59 -50 110 -50
112 0 3 -33 77 -85 189 -12 28 -30 68 -40 90 -10 22 -31 69 -47 105 -17 36
-34 74 -39 85 -40 93 -112 242 -129 266 l-21 29 -117 -1 c-64 -1 -148 -6 -187
-10z"/>
<path d="M11030 15940 c-100 -24 -251 -40 -374 -40 -75 0 -158 -5 -183 -11
l-45 -12 5 -181 c4 -100 11 -305 16 -456 6 -151 15 -401 20 -555 14 -364 14
-1470 0 -1695 -24 -406 -52 -1351 -42 -1391 10 -38 44 -43 196 -29 135 12 305
10 472 -6 51 -5 63 -3 83 14 l24 21 -6 688 c-19 2253 -19 2361 2 2372 18 9 26
4 64 -42 23 -28 45 -54 48 -57 4 -3 19 -23 35 -45 17 -22 32 -42 35 -45 4 -3
19 -23 35 -45 17 -22 32 -42 35 -45 3 -3 39 -50 80 -105 41 -55 77 -102 80
-105 3 -3 39 -50 80 -105 41 -55 77 -102 80 -105 3 -3 80 -104 170 -225 91
-121 167 -222 170 -225 3 -3 39 -50 80 -105 41 -55 77 -102 80 -105 3 -3 34
-43 69 -90 36 -47 75 -98 88 -115 13 -16 27 -34 31 -40 54 -74 428 -571 432
-575 3 -3 23 -30 45 -60 22 -30 42 -57 45 -60 3 -3 30 -39 60 -80 30 -41 57
-77 60 -80 5 -5 43 -55 266 -355 158 -213 210 -271 250 -281 13 -3 76 -1 138
6 77 9 157 11 247 5 251 -14 240 -15 267 25 l24 35 -9 600 c-16 1200 -11 1847
27 2905 11 314 12 731 2 746 -19 29 -49 33 -168 24 -148 -12 -326 -12 -463 -1
-115 10 -148 3 -157 -35 -14 -54 8 -1059 35 -1644 12 -240 15 -1252 4 -1349
-10 -102 -26 -95 -150 64 -35 44 -66 85 -70 90 -5 6 -42 55 -83 110 -41 55
-77 102 -80 105 -3 3 -39 50 -80 105 -41 55 -77 102 -80 105 -3 3 -43 57 -90
120 -47 63 -87 117 -90 120 -3 3 -39 50 -80 105 -41 55 -80 107 -87 115 -16
20 -93 121 -118 155 -55 75 -337 452 -348 465 -7 8 -37 49 -67 90 -30 41 -57
77 -60 80 -3 3 -23 30 -45 60 -22 30 -42 57 -45 60 -5 5 -78 102 -224 300 -42
58 -86 116 -96 130 -105 140 -268 363 -320 435 -35 50 -67 92 -70 95 -3 3 -18
23 -34 45 -16 22 -45 57 -65 78 -30 31 -41 37 -76 36 -22 -1 -56 -5 -75 -9z"/>
<path d="M20570 15924 c-19 -3 -233 -8 -475 -12 -353 -7 -445 -11 -463 -23
-23 -14 -24 -17 -18 -114 21 -363 27 -488 55 -1145 13 -306 14 -1377 1 -1595
-18 -289 -29 -583 -40 -1010 -13 -500 -24 -462 126 -455 140 6 376 4 530 -5
182 -11 169 -33 161 275 -4 135 -9 255 -11 267 -9 46 -29 811 -22 865 9 69 29
94 87 107 62 15 770 14 823 0 70 -19 126 -51 157 -90 16 -20 29 -39 29 -43 0
-3 11 -30 25 -60 14 -30 25 -57 25 -60 0 -6 14 -38 66 -154 13 -29 24 -55 24
-57 0 -5 15 -40 66 -153 13 -29 24 -55 24 -57 0 -5 15 -40 66 -153 13 -29 24
-55 24 -57 0 -2 14 -35 31 -72 17 -38 44 -99 59 -138 15 -38 41 -99 58 -135
16 -36 40 -87 52 -115 47 -107 55 -121 79 -143 38 -33 59 -36 204 -23 171 14
319 14 491 -1 130 -11 139 -11 152 6 11 15 10 25 -2 60 -31 81 -79 193 -144
331 -15 33 -46 98 -68 145 -96 206 -188 402 -247 525 -24 50 -53 113 -65 140
-13 28 -40 88 -62 135 -22 47 -47 101 -55 120 -9 19 -21 49 -28 65 -61 139
-65 156 -42 186 7 8 50 46 97 84 230 185 351 323 426 485 51 110 54 121 85
260 46 208 58 499 28 705 -22 154 -75 321 -134 424 -55 98 -60 106 -65 111 -3
3 -18 23 -34 45 -48 66 -186 199 -261 252 -124 87 -324 177 -495 223 -192 51
-222 53 -770 55 -283 1 -531 1 -550 -1z m635 -629 c270 -21 373 -38 486 -81
128 -47 229 -122 285 -210 10 -16 21 -31 24 -34 7 -6 60 -115 71 -145 4 -11
12 -40 18 -65 5 -25 16 -70 23 -100 18 -76 17 -389 0 -455 -50 -184 -125 -299
-252 -385 -89 -60 -181 -95 -331 -125 -147 -29 -1066 -12 -1120 20 -13 8 -12
1305 1 1420 16 133 25 138 265 160 193 17 309 17 530 0z"/>
<path d="M473 15910 c-37 -15 -43 -40 -33 -131 6 -46 10 -122 10 -169 0 -47 4
-152 10 -235 13 -198 29 -657 40 -1200 10 -470 1 -968 -25 -1420 -28 -488 -40
-780 -40 -965 l0 -184 35 -24 35 -24 250 6 c1379 36 1882 29 2351 -36 91 -12
127 -7 152 23 17 20 34 103 52 254 9 77 17 119 39 215 37 154 36 216 -2 225
-20 5 -141 -1 -497 -25 -1007 -67 -1350 -67 -1494 1 -24 11 -49 31 -56 44 -7
14 -17 25 -22 25 -4 0 -8 8 -8 18 0 10 -4 22 -9 27 -5 6 -16 42 -25 81 -13 59
-16 148 -16 522 -1 496 -3 477 61 523 48 34 260 42 884 35 303 -3 593 -10 645
-16 52 -5 145 -13 205 -16 148 -9 148 -9 157 170 7 139 24 344 34 413 9 59 -3
102 -31 113 -13 5 -75 4 -146 -1 -244 -20 -573 -30 -1127 -35 -447 -5 -570 -3
-595 7 -41 17 -75 56 -83 94 -3 17 -4 226 -1 465 3 384 5 440 21 475 9 22 19
47 22 55 8 23 63 58 119 75 76 23 281 29 570 15 143 -7 330 -16 415 -20 85 -4
314 -13 507 -20 434 -16 409 -22 399 109 -10 136 -39 355 -58 441 -12 49 -17
57 -53 75 -38 19 -55 20 -345 15 -442 -7 -1869 -6 -2115 2 -117 4 -220 3 -232
-2z"/>
<path d="M8943 15909 c-14 -8 -23 -24 -27 -53 -10 -69 14 -839 43 -1376 13
-240 13 -1189 0 -1440 -28 -545 -52 -1340 -43 -1408 10 -72 27 -77 197 -62
136 12 326 10 505 -6 134 -12 148 11 138 229 -4 84 -11 307 -16 497 -5 190
-14 460 -21 600 -14 325 -15 1404 -1 1750 16 386 35 1208 28 1235 -10 39 -52
46 -199 34 -121 -10 -425 -7 -537 6 -25 2 -55 0 -67 -6z"/>
<path d="M26975 11094 c-52 -45 -69 -58 -110 -89 -22 -16 -42 -32 -45 -36 -23
-26 -454 -329 -468 -329 -6 0 -12 -4 -14 -8 -1 -5 -32 -26 -68 -47 -36 -22
-79 -50 -96 -62 -17 -13 -34 -23 -37 -23 -4 0 -38 -20 -77 -45 -39 -25 -72
-45 -75 -45 -2 0 -29 -16 -59 -35 -30 -19 -58 -35 -61 -35 -4 0 -19 -8 -33
-19 -24 -17 -96 -56 -222 -122 -25 -13 -47 -27 -50 -30 -6 -6 -587 -294 -675
-334 -33 -15 -80 -36 -105 -47 -25 -12 -72 -33 -105 -49 -33 -15 -83 -37 -111
-48 -28 -11 -73 -29 -100 -41 -27 -12 -58 -26 -69 -30 -11 -4 -38 -15 -60 -25
-22 -9 -49 -20 -60 -24 -45 -18 -73 -30 -128 -55 -32 -14 -64 -26 -72 -26 -7
0 -17 -4 -20 -10 -3 -5 -16 -10 -29 -10 -12 0 -26 -4 -31 -9 -6 -4 -44 -21
-85 -35 -41 -15 -84 -31 -95 -36 -11 -5 -54 -20 -95 -35 -41 -14 -83 -30 -92
-36 -10 -5 -26 -9 -36 -9 -10 0 -22 -4 -27 -8 -6 -5 -37 -17 -70 -27 -33 -11
-64 -23 -70 -27 -5 -4 -19 -8 -31 -8 -13 0 -25 -4 -28 -9 -3 -5 -18 -11 -33
-14 -30 -5 -147 -44 -175 -58 -10 -5 -28 -9 -41 -9 -13 0 -27 -4 -32 -8 -6 -4
-37 -16 -70 -26 -33 -10 -68 -22 -77 -27 -10 -5 -27 -9 -38 -9 -11 0 -28 -4
-38 -9 -9 -5 -44 -17 -77 -26 -33 -10 -68 -21 -77 -26 -10 -5 -29 -9 -42 -9
-14 0 -28 -4 -31 -10 -3 -5 -17 -10 -31 -10 -13 0 -32 -4 -42 -10 -16 -9 -150
-47 -202 -57 -14 -2 -34 -8 -45 -13 -11 -4 -49 -15 -85 -25 -36 -9 -79 -21
-96 -26 -17 -5 -40 -9 -52 -9 -11 0 -23 -4 -26 -9 -3 -5 -23 -11 -43 -14 -21
-3 -65 -13 -98 -22 -60 -17 -123 -31 -180 -41 -16 -3 -37 -8 -45 -11 -32 -13
-200 -52 -255 -60 -22 -3 -44 -9 -50 -14 -5 -5 -24 -9 -43 -9 -18 0 -41 -4
-51 -10 -10 -5 -45 -14 -77 -20 -33 -6 -81 -15 -109 -21 -27 -5 -72 -14 -100
-19 -27 -5 -81 -16 -120 -25 -77 -17 -151 -31 -235 -45 -149 -24 -182 -30
-190 -35 -9 -6 -166 -32 -330 -55 -36 -5 -103 -16 -150 -25 -101 -19 -209 -33
-305 -41 -38 -3 -77 -8 -85 -11 -19 -8 -168 -31 -285 -44 -229 -25 -276 -30
-365 -38 -52 -5 -102 -11 -110 -15 -21 -8 -306 -35 -585 -55 -186 -14 -375
-30 -485 -41 -52 -6 -144 -10 -203 -10 -60 0 -138 -4 -175 -10 -77 -11 -223
-15 -1037 -29 -745 -13 -1621 0 -2397 37 -120 6 -221 12 -225 15 -4 2 -87 8
-183 12 -96 4 -180 10 -185 15 -6 5 -71 11 -145 14 -269 12 -655 42 -672 52
-6 4 -65 11 -132 16 -304 23 -556 49 -721 73 -22 3 -83 10 -135 16 -253 25
-440 48 -460 56 -8 3 -53 10 -100 15 -216 22 -410 47 -421 54 -6 3 -45 10 -87
15 -42 6 -108 14 -147 19 -38 5 -104 14 -145 19 -41 5 -113 17 -160 26 -47 9
-114 20 -150 25 -63 9 -104 15 -274 40 -44 6 -84 14 -89 17 -5 3 -38 10 -73
14 -60 8 -108 16 -244 38 -30 5 -93 17 -140 26 -81 16 -129 24 -258 44 -152
24 -195 32 -204 37 -5 3 -35 10 -66 15 -31 6 -79 14 -107 19 -27 5 -75 14
-105 19 -30 5 -89 17 -130 26 -76 17 -128 27 -235 44 -33 6 -89 17 -125 26
-36 9 -85 19 -110 22 -25 3 -49 9 -55 14 -5 5 -25 9 -44 9 -19 0 -48 4 -65 9
-44 14 -237 55 -376 80 -30 6 -84 18 -120 26 -76 19 -138 33 -200 45 -40 7
-96 20 -225 52 -22 5 -60 13 -85 18 -103 21 -138 28 -200 45 -36 9 -84 21
-107 26 -174 37 -296 67 -331 80 -13 5 -34 9 -47 9 -13 0 -34 4 -47 9 -13 5
-59 17 -103 26 -44 10 -89 21 -100 26 -11 4 -33 10 -50 13 -54 9 -119 24 -180
41 -33 9 -71 18 -85 21 -14 3 -34 9 -45 14 -11 5 -33 11 -50 14 -57 9 -200 45
-230 57 -11 4 -33 10 -50 13 -35 6 -86 18 -170 41 -33 9 -71 18 -85 21 -14 3
-34 9 -45 14 -11 5 -33 11 -50 13 -16 3 -55 12 -85 22 -30 9 -70 19 -88 22
-18 3 -35 9 -38 14 -3 5 -20 9 -39 9 -19 0 -36 4 -39 9 -3 5 -20 11 -38 14
-18 3 -58 12 -88 22 -52 16 -75 22 -167 44 -21 5 -63 17 -93 26 -30 9 -70 19
-88 22 -18 3 -35 9 -38 14 -3 5 -15 9 -26 9 -12 0 -35 4 -52 10 -129 41 -198
60 -215 60 -11 0 -23 5 -26 10 -3 6 -17 10 -30 10 -13 0 -34 4 -47 9 -13 5
-50 17 -83 26 -33 9 -68 21 -77 26 -10 5 -29 9 -43 9 -14 0 -33 4 -43 9 -9 5
-46 17 -82 26 -36 9 -73 21 -82 26 -10 5 -29 9 -42 9 -14 0 -28 5 -31 10 -3 6
-15 10 -26 10 -20 0 -171 46 -201 61 -10 5 -25 9 -35 9 -9 0 -48 11 -87 23
-39 13 -91 30 -116 37 -25 7 -58 17 -75 21 -16 5 -64 20 -105 33 -41 13 -95
29 -120 36 -94 27 -206 62 -222 71 -10 5 -27 9 -38 9 -11 0 -28 4 -38 9 -9 5
-44 17 -77 27 -33 10 -64 22 -70 26 -5 4 -19 8 -32 8 -13 0 -31 4 -41 9 -9 5
-57 21 -107 36 -49 15 -99 31 -110 35 -11 4 -40 13 -65 20 -49 14 -123 38
-155 50 -11 4 -40 13 -65 20 -25 7 -54 16 -65 20 -11 5 -45 16 -75 25 -30 10
-63 21 -72 26 -10 5 -27 9 -37 9 -11 0 -22 4 -25 9 -3 5 -18 11 -33 14 -30 5
-87 24 -115 38 -10 5 -25 9 -33 9 -8 0 -23 4 -33 9 -30 16 -184 63 -189 58 -2
-3 35 -24 84 -47 241 -116 318 -154 323 -159 5 -6 18 -13 165 -92 44 -23 105
-55 135 -72 141 -75 262 -139 470 -244 124 -63 229 -118 235 -124 5 -5 17 -9
27 -9 10 0 18 -4 18 -10 0 -5 6 -10 14 -10 8 0 42 -16 76 -35 34 -19 66 -35
70 -35 4 0 36 -16 70 -35 34 -19 68 -35 76 -35 8 0 14 -4 14 -10 0 -5 5 -10
11 -10 7 0 84 -35 173 -79 148 -72 230 -111 436 -208 154 -73 266 -126 313
-149 27 -13 55 -24 63 -24 8 0 14 -4 14 -10 0 -5 6 -10 13 -10 8 0 40 -13 73
-29 32 -15 82 -38 109 -51 28 -12 68 -31 89 -41 22 -11 46 -19 53 -19 7 0 13
-4 13 -10 0 -5 6 -10 13 -10 7 0 31 -8 53 -19 21 -10 55 -25 74 -34 19 -8 58
-25 85 -37 53 -23 91 -40 153 -66 41 -18 105 -46 167 -74 22 -10 58 -25 80
-34 22 -10 48 -21 57 -26 10 -6 25 -10 33 -10 8 0 15 -4 15 -10 0 -5 7 -10 16
-10 8 0 41 -12 72 -26 31 -14 66 -29 77 -34 11 -4 46 -20 78 -34 32 -14 60
-26 62 -26 3 0 27 -9 53 -21 26 -12 58 -26 72 -31 14 -6 39 -16 55 -23 17 -7
41 -17 55 -23 14 -5 51 -22 83 -36 32 -14 62 -26 67 -26 6 0 18 -4 28 -9 9 -5
28 -13 42 -19 14 -5 51 -22 83 -36 32 -14 62 -26 67 -26 6 0 19 -5 30 -10 11
-5 29 -14 40 -20 11 -5 24 -10 30 -10 5 0 35 -12 67 -26 65 -29 83 -37 133
-54 19 -7 51 -20 70 -28 38 -15 42 -17 145 -57 39 -15 80 -31 93 -36 58 -24
69 -28 102 -39 46 -17 101 -39 122 -51 10 -5 26 -9 36 -9 10 0 22 -4 27 -8 6
-5 44 -21 85 -36 41 -15 84 -31 95 -36 11 -5 43 -16 70 -26 28 -9 54 -21 60
-26 5 -4 17 -8 27 -8 10 0 26 -4 36 -9 9 -5 49 -21 87 -36 39 -15 78 -31 87
-36 10 -5 27 -9 37 -9 11 0 23 -4 26 -10 3 -5 16 -10 29 -10 12 0 26 -4 31 -9
6 -4 35 -16 65 -27 30 -10 59 -22 65 -26 5 -4 16 -8 24 -8 16 0 144 -45 173
-61 10 -5 27 -9 37 -9 11 0 23 -4 26 -10 3 -5 14 -10 24 -10 10 0 32 -7 47
-15 16 -8 37 -15 46 -15 9 0 20 -4 23 -10 3 -5 17 -10 30 -10 13 0 27 -4 30
-10 3 -5 14 -10 23 -10 14 0 93 -27 177 -59 11 -5 58 -20 105 -35 47 -15 94
-31 105 -36 11 -4 74 -25 140 -45 66 -21 124 -42 130 -47 5 -4 19 -8 32 -8 13
0 31 -4 41 -9 9 -5 42 -16 72 -26 30 -9 64 -20 75 -25 11 -4 40 -13 65 -20 61
-17 120 -36 150 -48 14 -5 45 -16 70 -22 85 -24 205 -62 222 -71 10 -5 27 -9
38 -9 11 0 28 -4 38 -9 9 -5 44 -17 77 -26 89 -25 128 -37 150 -46 11 -4 31
-10 45 -12 14 -3 50 -12 80 -21 107 -32 125 -37 150 -42 14 -3 34 -9 45 -14
11 -5 31 -11 45 -13 14 -3 50 -13 80 -22 30 -9 66 -19 80 -22 14 -2 34 -8 45
-13 11 -5 31 -11 45 -13 14 -3 50 -12 80 -21 99 -30 125 -37 160 -46 41 -10
85 -22 160 -45 30 -9 73 -21 95 -25 22 -5 58 -13 80 -19 22 -6 58 -14 80 -19
81 -19 141 -35 163 -43 13 -5 36 -9 52 -9 16 0 31 -4 34 -9 3 -5 23 -11 43
-14 21 -3 65 -13 98 -22 33 -9 74 -19 90 -22 17 -2 39 -8 50 -13 11 -5 34 -11
50 -13 17 -3 59 -13 95 -22 87 -23 162 -40 273 -64 23 -5 74 -17 112 -26 39
-9 90 -21 115 -25 82 -16 144 -29 215 -46 39 -9 91 -20 118 -25 210 -40 249
-47 322 -64 39 -9 97 -20 130 -26 117 -19 161 -27 245 -44 168 -34 239 -46
373 -64 42 -5 81 -12 85 -15 5 -3 44 -10 88 -16 43 -7 106 -16 139 -21 33 -5
92 -14 130 -19 39 -5 115 -16 170 -25 170 -27 327 -48 484 -64 57 -6 111 -13
121 -16 27 -9 278 -35 515 -54 66 -5 131 -12 145 -15 48 -11 413 -38 755 -56
732 -38 1625 -38 2255 0 85 5 223 14 305 19 83 5 161 12 175 15 24 6 140 19
330 37 175 16 400 44 430 54 10 3 53 10 97 16 202 26 246 33 398 64 44 9 107
20 140 25 119 19 171 28 240 45 92 22 152 35 195 41 19 3 44 9 55 14 11 5 34
11 50 13 17 3 62 13 100 22 39 9 84 19 100 22 17 2 39 8 50 13 11 5 31 11 45
13 53 11 196 50 212 58 10 5 29 9 42 9 14 0 35 4 48 9 13 4 50 16 83 26 33 9
68 21 77 26 10 5 27 9 38 9 11 0 28 4 38 9 9 5 58 21 107 36 50 15 98 31 107
36 10 5 29 9 42 9 14 0 28 5 31 10 3 6 15 10 25 10 17 0 66 18 112 41 10 5 27
9 37 9 11 0 22 4 25 9 3 5 16 11 28 14 23 5 187 61 223 77 11 5 54 20 95 35
41 15 95 36 120 47 96 43 132 58 197 82 23 8 64 25 90 37 26 11 57 25 68 29
27 11 162 73 255 117 41 20 109 51 150 71 116 54 215 104 405 208 39 20 99 53
135 71 69 36 102 55 110 63 3 3 19 12 35 20 17 8 32 17 35 20 9 10 90 60 95
60 3 0 31 16 61 35 30 19 59 35 64 35 6 0 10 5 10 10 0 6 5 10 10 10 9 0 213
128 245 153 28 22 245 167 250 167 6 0 74 49 85 60 3 3 30 23 60 45 30 22 57
42 60 45 3 4 59 46 125 95 111 82 253 195 300 238 11 11 36 31 55 46 30 22 65
52 114 96 6 6 34 28 61 50 28 21 57 46 65 55 8 8 65 60 125 115 61 55 218 208
350 340 223 223 292 295 370 385 93 108 164 189 196 225 20 22 61 69 90 105
29 36 58 70 64 76 6 6 37 47 70 90 33 43 66 85 73 93 8 8 32 39 55 70 23 31
44 58 47 61 3 3 18 23 35 45 16 22 32 42 35 45 9 7 360 510 360 516 0 10 -17
2 -45 -22z"/>
</g>
</svg>
